<?xml version="1.0" standalone="no"?>
<!DOCTYPE svg PUBLIC "-//W3C//DTD SVG 20010904//EN"
 "http://www.w3.org/TR/2001/REC-SVG-20010904/DTD/svg10.dtd">
<svg version="1.0" xmlns="http://www.w3.org/2000/svg"
 width="360.000000pt" height="360.000000pt" viewBox="0 0 360.000000 360.000000"
 preserveAspectRatio="xMidYMid meet">
<metadata>
Created by potrace 1.16, written by Peter Selinger 2001-2019
</metadata>
<g transform="translate(0.000000,360.000000) scale(0.100000,-0.100000)"
fill="#000000" stroke="none">
<path d="M1545 3589 c-385 -33 -772 -142 -1107 -310 l-78 -39 0 -360 0 -360
89 -44 c279 -140 591 -237 934 -288 206 -31 628 -31 834 0 341 51 652 146 923
282 l100 50 0 361 0 360 -132 64 c-291 139 -590 226 -923 270 -147 19 -491 27
-640 14z"/>
<path d="M360 1800 l0 -360 89 -44 c279 -140 591 -237 934 -288 207 -31 629
-31 834 0 343 52 651 146 921 281 l102 51 0 360 0 360 -107 -54 c-583 -291
-1304 -380 -1964 -240 -247 52 -460 124 -676 229 l-133 64 0 -359z"/>
<path d="M360 720 l0 -360 89 -44 c279 -140 591 -237 934 -288 206 -31 628
-31 834 0 343 51 655 148 934 288 l89 44 0 359 0 360 -142 -69 c-395 -189
-845 -290 -1298 -290 -470 0 -939 109 -1342 311 l-98 49 0 -360z"/>
</g>
</svg>
