<?xml version="1.0" standalone="no"?>
<!DOCTYPE svg PUBLIC "-//W3C//DTD SVG 20010904//EN"
 "http://www.w3.org/TR/2001/REC-SVG-20010904/DTD/svg10.dtd">
<svg version="1.0" xmlns="http://www.w3.org/2000/svg"
 width="920.000000pt" height="920.000000pt" viewBox="0 0 920.000000 920.000000"
 preserveAspectRatio="xMidYMid meet">
<metadata>
Created by potrace 1.16, written by Peter Selinger 2001-2019
</metadata>
<g transform="translate(0.000000,920.000000) scale(0.100000,-0.100000)"
fill="#000000" stroke="none">
<path d="M4385 8271 c-33 -10 -76 -26 -97 -34 -32 -15 -795 -405 -1313 -672
-99 -51 -362 -186 -585 -300 -223 -114 -441 -226 -485 -250 -44 -23 -190 -98
-324 -166 -273 -138 -315 -170 -350 -264 -41 -108 -19 -221 57 -306 25 -28 59
-57 76 -66 17 -9 33 -19 36 -23 3 -4 93 -51 200 -105 107 -54 368 -186 580
-295 1299 -665 2123 -1082 2180 -1100 92 -31 208 -37 306 -15 77 17 328 139
1009 490 88 45 401 205 695 355 1435 732 1369 697 1426 762 99 113 94 293 -11
401 -35 37 -96 69 -785 422 -212 109 -473 242 -580 297 -492 253 -575 296
-725 373 -475 245 -866 445 -910 464 -119 53 -286 66 -400 32z"/>
<path d="M1650 5070 c-168 -87 -321 -171 -340 -188 -87 -73 -123 -213 -81
-322 46 -122 70 -138 666 -440 231 -117 474 -241 540 -275 66 -34 264 -136
440 -225 176 -90 487 -248 690 -353 566 -291 774 -392 838 -406 73 -16 199
-16 274 0 54 11 436 199 1028 504 99 51 513 263 920 470 942 480 1098 562
1145 602 95 82 124 238 67 356 -16 31 -45 71 -65 88 -20 17 -111 69 -202 115
-91 47 -229 119 -308 160 l-143 74 -182 -94 c-100 -51 -391 -200 -647 -331
-256 -131 -541 -277 -635 -325 -436 -224 -696 -350 -763 -370 -119 -35 -230
-50 -357 -50 -227 1 -361 39 -640 181 -110 56 -416 212 -680 346 -264 135
-595 304 -735 375 -140 72 -314 161 -387 199 -72 38 -133 69 -135 68 -1 0
-140 -72 -308 -159z"/>
<path d="M1640 3250 c-268 -139 -310 -164 -352 -209 -94 -103 -103 -255 -23
-371 41 -60 129 -112 530 -315 204 -103 557 -283 785 -400 228 -117 555 -283
725 -370 171 -87 454 -232 630 -322 339 -173 411 -206 496 -224 72 -16 220 -6
291 19 54 20 331 156 583 287 66 34 480 246 920 470 1109 566 1443 737 1491
767 176 111 203 341 57 479 -24 23 -151 94 -347 194 l-309 158 -171 -88 c-393
-202 -557 -285 -1056 -540 -289 -147 -601 -307 -695 -355 -300 -153 -407 -183
-655 -184 -148 0 -176 3 -271 27 -152 39 -184 54 -669 302 -239 122 -667 340
-950 485 -283 144 -552 282 -597 306 -44 24 -87 43 -95 43 -7 -1 -150 -72
-318 -159z"/>
</g>
</svg>
