<?xml version="1.0" standalone="no"?>
<!DOCTYPE svg PUBLIC "-//W3C//DTD SVG 20010904//EN"
 "http://www.w3.org/TR/2001/REC-SVG-20010904/DTD/svg10.dtd">
<svg version="1.0" xmlns="http://www.w3.org/2000/svg"
 width="830.000000pt" height="512.000000pt" viewBox="0 0 830.000000 512.000000"
 preserveAspectRatio="xMidYMid meet">
<metadata>
Created by potrace 1.16, written by Peter Selinger 2001-2019
</metadata>
<g transform="translate(0.000000,512.000000) scale(0.100000,-0.100000)"
fill="#000000" stroke="none">
<path d="M1875 4756 c-95 -30 -181 -99 -233 -187 -54 -91 -52 0 -52 -2009 0
-2019 -3 -1916 55 -2013 37 -63 113 -133 180 -164 l60 -28 2265 0 2265 0 67
33 c84 41 167 128 200 209 l23 58 0 1905 0 1905 -23 58 c-33 81 -116 168 -200
209 l-67 33 -2250 2 c-1798 1 -2258 -1 -2290 -11z m4479 -348 c13 -19 16 -61
16 -255 l0 -233 -2220 0 -2220 0 0 233 c0 194 3 236 16 255 l15 22 2189 0
2189 0 15 -22z m16 -2251 c0 -1271 -2 -1425 -16 -1445 l-15 -22 -2189 0 -2189
0 -15 22 c-14 20 -16 174 -16 1445 l0 1423 2220 0 2220 0 0 -1423z"/>
<path d="M2253 4289 c-69 -34 -92 -111 -52 -176 55 -89 179 -81 221 15 30 67
0 139 -68 168 -44 18 -51 18 -101 -7z"/>
<path d="M2670 4292 c-40 -20 -80 -74 -80 -109 0 -65 65 -133 126 -133 74 0
143 76 130 144 -8 44 -41 85 -82 102 -43 18 -52 18 -94 -4z"/>
<path d="M3102 4303 c-36 -7 -89 -64 -97 -105 -14 -72 51 -148 126 -148 40 0
84 27 110 66 57 86 -32 206 -139 187z"/>
<path d="M4595 3131 c-45 -28 -51 -36 -220 -331 -87 -151 -256 -444 -375 -650
-479 -828 -463 -799 -468 -850 -9 -95 59 -170 161 -177 66 -5 112 17 148 72
15 22 146 247 291 500 146 253 363 629 482 835 119 206 221 391 228 411 6 20
8 53 4 73 -8 44 -59 104 -103 122 -46 20 -113 17 -148 -5z"/>
<path d="M3070 2959 c-31 -12 -726 -703 -747 -743 -20 -38 -20 -114 0 -152 9
-16 175 -187 369 -381 385 -383 387 -385 472 -362 50 14 85 40 113 87 25 41
30 109 12 145 -6 12 -138 149 -292 304 l-282 283 287 287 c308 310 309 311
295 399 -16 98 -137 168 -227 133z"/>
<path d="M5104 2951 c-76 -35 -115 -113 -99 -198 6 -33 45 -76 293 -326 l287
-287 -282 -283 c-154 -155 -286 -292 -292 -304 -19 -37 -13 -103 13 -147 45
-77 150 -111 222 -73 35 19 717 702 734 736 17 33 15 112 -3 147 -9 16 -172
185 -364 376 -400 400 -408 405 -509 359z"/>
</g>
</svg>
